<mxfile host="app.diagrams.net" agent="Mozilla/5.0 (Windows NT 10.0; Win64; x64) AppleWebKit/537.36 (KHTML, like Gecko) Chrome/126.0.0.0 Safari/537.36" version="24.7.5">
  <diagram id="C5RBs43oDa-KdzZeNtuy" name="Page-1">
    <mxGraphModel dx="2653" dy="908" grid="1" gridSize="10" guides="1" tooltips="1" connect="1" arrows="1" fold="1" page="1" pageScale="1" pageWidth="827" pageHeight="1169" math="0" shadow="0">
      <root>
        <mxCell id="WIyWlLk6GJQsqaUBKTNV-0" />
        <mxCell id="WIyWlLk6GJQsqaUBKTNV-1" parent="WIyWlLk6GJQsqaUBKTNV-0" />
        <mxCell id="zkfFHV4jXpPFQw0GAbJ--0" value="Resource" style="swimlane;fontStyle=0;align=center;verticalAlign=top;childLayout=stackLayout;horizontal=1;startSize=26;horizontalStack=0;resizeParent=1;resizeLast=0;collapsible=1;marginBottom=0;rounded=0;shadow=0;strokeWidth=1;" parent="WIyWlLk6GJQsqaUBKTNV-1" vertex="1">
          <mxGeometry x="-674" y="10" width="310" height="400" as="geometry">
            <mxRectangle x="230" y="140" width="160" height="26" as="alternateBounds" />
          </mxGeometry>
        </mxCell>
        <mxCell id="zkfFHV4jXpPFQw0GAbJ--1" value="- name: String" style="text;align=left;verticalAlign=top;spacingLeft=4;spacingRight=4;overflow=hidden;rotatable=0;points=[[0,0.5],[1,0.5]];portConstraint=eastwest;" parent="zkfFHV4jXpPFQw0GAbJ--0" vertex="1">
          <mxGeometry y="26" width="310" height="26" as="geometry" />
        </mxCell>
        <mxCell id="ifu416TX_ENfzCsFPoP_-11" value="- costo: Double" style="text;align=left;verticalAlign=top;spacingLeft=4;spacingRight=4;overflow=hidden;rotatable=0;points=[[0,0.5],[1,0.5]];portConstraint=eastwest;" parent="zkfFHV4jXpPFQw0GAbJ--0" vertex="1">
          <mxGeometry y="52" width="310" height="26" as="geometry" />
        </mxCell>
        <mxCell id="zkfFHV4jXpPFQw0GAbJ--2" value="- disponibilitÃ : List&lt;StateDate&gt;" style="text;align=left;verticalAlign=top;spacingLeft=4;spacingRight=4;overflow=hidden;rotatable=0;points=[[0,0.5],[1,0.5]];portConstraint=eastwest;rounded=0;shadow=0;html=0;" parent="zkfFHV4jXpPFQw0GAbJ--0" vertex="1">
          <mxGeometry y="78" width="310" height="26" as="geometry" />
        </mxCell>
        <mxCell id="zkfFHV4jXpPFQw0GAbJ--4" value="" style="line;html=1;strokeWidth=1;align=left;verticalAlign=middle;spacingTop=-1;spacingLeft=3;spacingRight=3;rotatable=0;labelPosition=right;points=[];portConstraint=eastwest;" parent="zkfFHV4jXpPFQw0GAbJ--0" vertex="1">
          <mxGeometry y="104" width="310" height="8" as="geometry" />
        </mxCell>
        <mxCell id="zkfFHV4jXpPFQw0GAbJ--5" value="+ Resource()" style="text;align=left;verticalAlign=top;spacingLeft=4;spacingRight=4;overflow=hidden;rotatable=0;points=[[0,0.5],[1,0.5]];portConstraint=eastwest;" parent="zkfFHV4jXpPFQw0GAbJ--0" vertex="1">
          <mxGeometry y="112" width="310" height="26" as="geometry" />
        </mxCell>
        <mxCell id="ifu416TX_ENfzCsFPoP_-7" value="+ accept(v: Visitor&lt;T&gt;) : T" style="text;align=left;verticalAlign=top;spacingLeft=4;spacingRight=4;overflow=hidden;rotatable=0;points=[[0,0.5],[1,0.5]];portConstraint=eastwest;" parent="zkfFHV4jXpPFQw0GAbJ--0" vertex="1">
          <mxGeometry y="138" width="310" height="26" as="geometry" />
        </mxCell>
        <mxCell id="ifu416TX_ENfzCsFPoP_-8" value="+ accept(v: Visitor &lt;T&gt;, sd: StateDate): T" style="text;align=left;verticalAlign=top;spacingLeft=4;spacingRight=4;overflow=hidden;rotatable=0;points=[[0,0.5],[1,0.5]];portConstraint=eastwest;" parent="zkfFHV4jXpPFQw0GAbJ--0" vertex="1">
          <mxGeometry y="164" width="310" height="26" as="geometry" />
        </mxCell>
        <mxCell id="ifu416TX_ENfzCsFPoP_-9" value="+ selectData(data: LocalData): StateDate" style="text;align=left;verticalAlign=top;spacingLeft=4;spacingRight=4;overflow=hidden;rotatable=0;points=[[0,0.5],[1,0.5]];portConstraint=eastwest;" parent="zkfFHV4jXpPFQw0GAbJ--0" vertex="1">
          <mxGeometry y="190" width="310" height="26" as="geometry" />
        </mxCell>
        <mxCell id="ifu416TX_ENfzCsFPoP_-10" value="+ changeStato(sd: StateDate): void" style="text;align=left;verticalAlign=top;spacingLeft=4;spacingRight=4;overflow=hidden;rotatable=0;points=[[0,0.5],[1,0.5]];portConstraint=eastwest;" parent="zkfFHV4jXpPFQw0GAbJ--0" vertex="1">
          <mxGeometry y="216" width="310" height="26" as="geometry" />
        </mxCell>
        <mxCell id="ifu416TX_ENfzCsFPoP_-12" value="+ getStato(data: LocalData): State" style="text;align=left;verticalAlign=top;spacingLeft=4;spacingRight=4;overflow=hidden;rotatable=0;points=[[0,0.5],[1,0.5]];portConstraint=eastwest;" parent="zkfFHV4jXpPFQw0GAbJ--0" vertex="1">
          <mxGeometry y="242" width="310" height="26" as="geometry" />
        </mxCell>
        <mxCell id="ifu416TX_ENfzCsFPoP_-13" value="+ getCosto(): Double" style="text;align=left;verticalAlign=top;spacingLeft=4;spacingRight=4;overflow=hidden;rotatable=0;points=[[0,0.5],[1,0.5]];portConstraint=eastwest;" parent="zkfFHV4jXpPFQw0GAbJ--0" vertex="1">
          <mxGeometry y="268" width="310" height="26" as="geometry" />
        </mxCell>
        <mxCell id="ifu416TX_ENfzCsFPoP_-14" value="+ setCosto(costo: Double): void" style="text;align=left;verticalAlign=top;spacingLeft=4;spacingRight=4;overflow=hidden;rotatable=0;points=[[0,0.5],[1,0.5]];portConstraint=eastwest;" parent="zkfFHV4jXpPFQw0GAbJ--0" vertex="1">
          <mxGeometry y="294" width="310" height="26" as="geometry" />
        </mxCell>
        <mxCell id="ifu416TX_ENfzCsFPoP_-15" value="+ getNome(): String" style="text;align=left;verticalAlign=top;spacingLeft=4;spacingRight=4;overflow=hidden;rotatable=0;points=[[0,0.5],[1,0.5]];portConstraint=eastwest;" parent="zkfFHV4jXpPFQw0GAbJ--0" vertex="1">
          <mxGeometry y="320" width="310" height="26" as="geometry" />
        </mxCell>
        <mxCell id="ifu416TX_ENfzCsFPoP_-16" value="+ getDisponibilita(): List&lt;StateDate&gt;" style="text;align=left;verticalAlign=top;spacingLeft=4;spacingRight=4;overflow=hidden;rotatable=0;points=[[0,0.5],[1,0.5]];portConstraint=eastwest;" parent="zkfFHV4jXpPFQw0GAbJ--0" vertex="1">
          <mxGeometry y="346" width="310" height="26" as="geometry" />
        </mxCell>
        <mxCell id="ifu416TX_ENfzCsFPoP_-17" value="+ setDisponibilita(disponibilita: List&lt;StateDate&gt;): void" style="text;align=left;verticalAlign=top;spacingLeft=4;spacingRight=4;overflow=hidden;rotatable=0;points=[[0,0.5],[1,0.5]];portConstraint=eastwest;" parent="zkfFHV4jXpPFQw0GAbJ--0" vertex="1">
          <mxGeometry y="372" width="310" height="26" as="geometry" />
        </mxCell>
        <mxCell id="zkfFHV4jXpPFQw0GAbJ--6" value="Hall" style="swimlane;fontStyle=0;align=center;verticalAlign=top;childLayout=stackLayout;horizontal=1;startSize=26;horizontalStack=0;resizeParent=1;resizeLast=0;collapsible=1;marginBottom=0;rounded=0;shadow=0;strokeWidth=1;" parent="WIyWlLk6GJQsqaUBKTNV-1" vertex="1">
          <mxGeometry x="-400" y="566" width="270" height="330" as="geometry">
            <mxRectangle x="130" y="380" width="160" height="26" as="alternateBounds" />
          </mxGeometry>
        </mxCell>
        <mxCell id="zkfFHV4jXpPFQw0GAbJ--7" value="- numeroPosti: Integer" style="text;align=left;verticalAlign=top;spacingLeft=4;spacingRight=4;overflow=hidden;rotatable=0;points=[[0,0.5],[1,0.5]];portConstraint=eastwest;" parent="zkfFHV4jXpPFQw0GAbJ--6" vertex="1">
          <mxGeometry y="26" width="270" height="26" as="geometry" />
        </mxCell>
        <mxCell id="zkfFHV4jXpPFQw0GAbJ--9" value="" style="line;html=1;strokeWidth=1;align=left;verticalAlign=middle;spacingTop=-1;spacingLeft=3;spacingRight=3;rotatable=0;labelPosition=right;points=[];portConstraint=eastwest;" parent="zkfFHV4jXpPFQw0GAbJ--6" vertex="1">
          <mxGeometry y="52" width="270" height="8" as="geometry" />
        </mxCell>
        <mxCell id="zkfFHV4jXpPFQw0GAbJ--11" value="+ Hall()&#xa;" style="text;align=left;verticalAlign=top;spacingLeft=4;spacingRight=4;overflow=hidden;rotatable=0;points=[[0,0.5],[1,0.5]];portConstraint=eastwest;" parent="zkfFHV4jXpPFQw0GAbJ--6" vertex="1">
          <mxGeometry y="60" width="270" height="26" as="geometry" />
        </mxCell>
        <mxCell id="ifu416TX_ENfzCsFPoP_-41" value="+ Hall(s: String)" style="text;align=left;verticalAlign=top;spacingLeft=4;spacingRight=4;overflow=hidden;rotatable=0;points=[[0,0.5],[1,0.5]];portConstraint=eastwest;" parent="zkfFHV4jXpPFQw0GAbJ--6" vertex="1">
          <mxGeometry y="86" width="270" height="26" as="geometry" />
        </mxCell>
        <mxCell id="ifu416TX_ENfzCsFPoP_-43" value="+ accept(v: Visitor&lt;T&gt;) : T" style="text;align=left;verticalAlign=top;spacingLeft=4;spacingRight=4;overflow=hidden;rotatable=0;points=[[0,0.5],[1,0.5]];portConstraint=eastwest;" parent="zkfFHV4jXpPFQw0GAbJ--6" vertex="1">
          <mxGeometry y="112" width="270" height="26" as="geometry" />
        </mxCell>
        <mxCell id="ifu416TX_ENfzCsFPoP_-44" value="+ accept(v: Visitor &lt;T&gt;, sd: StateDate): T" style="text;align=left;verticalAlign=top;spacingLeft=4;spacingRight=4;overflow=hidden;rotatable=0;points=[[0,0.5],[1,0.5]];portConstraint=eastwest;" parent="zkfFHV4jXpPFQw0GAbJ--6" vertex="1">
          <mxGeometry y="138" width="270" height="26" as="geometry" />
        </mxCell>
        <mxCell id="ifu416TX_ENfzCsFPoP_-45" value="+ getNumeroPosti(): Integer" style="text;align=left;verticalAlign=top;spacingLeft=4;spacingRight=4;overflow=hidden;rotatable=0;points=[[0,0.5],[1,0.5]];portConstraint=eastwest;" parent="zkfFHV4jXpPFQw0GAbJ--6" vertex="1">
          <mxGeometry y="164" width="270" height="26" as="geometry" />
        </mxCell>
        <mxCell id="ifu416TX_ENfzCsFPoP_-46" value="+ setNumeroPosti(numeroPosti: Integer): void" style="text;align=left;verticalAlign=top;spacingLeft=4;spacingRight=4;overflow=hidden;rotatable=0;points=[[0,0.5],[1,0.5]];portConstraint=eastwest;" parent="zkfFHV4jXpPFQw0GAbJ--6" vertex="1">
          <mxGeometry y="190" width="270" height="26" as="geometry" />
        </mxCell>
        <mxCell id="ifu416TX_ENfzCsFPoP_-47" value="+ compareName(o: String): int" style="text;align=left;verticalAlign=top;spacingLeft=4;spacingRight=4;overflow=hidden;rotatable=0;points=[[0,0.5],[1,0.5]];portConstraint=eastwest;" parent="zkfFHV4jXpPFQw0GAbJ--6" vertex="1">
          <mxGeometry y="216" width="270" height="26" as="geometry" />
        </mxCell>
        <mxCell id="ifu416TX_ENfzCsFPoP_-49" value="+ equals(o: Object): boolean" style="text;align=left;verticalAlign=top;spacingLeft=4;spacingRight=4;overflow=hidden;rotatable=0;points=[[0,0.5],[1,0.5]];portConstraint=eastwest;" parent="zkfFHV4jXpPFQw0GAbJ--6" vertex="1">
          <mxGeometry y="242" width="270" height="26" as="geometry" />
        </mxCell>
        <mxCell id="ifu416TX_ENfzCsFPoP_-50" value="+ hashCode(): int" style="text;align=left;verticalAlign=top;spacingLeft=4;spacingRight=4;overflow=hidden;rotatable=0;points=[[0,0.5],[1,0.5]];portConstraint=eastwest;" parent="zkfFHV4jXpPFQw0GAbJ--6" vertex="1">
          <mxGeometry y="268" width="270" height="26" as="geometry" />
        </mxCell>
        <mxCell id="ifu416TX_ENfzCsFPoP_-51" value="+ toString(): String" style="text;align=left;verticalAlign=top;spacingLeft=4;spacingRight=4;overflow=hidden;rotatable=0;points=[[0,0.5],[1,0.5]];portConstraint=eastwest;" parent="zkfFHV4jXpPFQw0GAbJ--6" vertex="1">
          <mxGeometry y="294" width="270" height="26" as="geometry" />
        </mxCell>
        <mxCell id="zkfFHV4jXpPFQw0GAbJ--17" value="StateDate" style="swimlane;fontStyle=0;align=center;verticalAlign=top;childLayout=stackLayout;horizontal=1;startSize=26;horizontalStack=0;resizeParent=1;resizeLast=0;collapsible=1;marginBottom=0;rounded=0;shadow=0;strokeWidth=1;" parent="WIyWlLk6GJQsqaUBKTNV-1" vertex="1">
          <mxGeometry x="-280" y="56" width="220" height="270" as="geometry">
            <mxRectangle x="550" y="140" width="160" height="26" as="alternateBounds" />
          </mxGeometry>
        </mxCell>
        <mxCell id="zkfFHV4jXpPFQw0GAbJ--18" value="- stato:State" style="text;align=left;verticalAlign=top;spacingLeft=4;spacingRight=4;overflow=hidden;rotatable=0;points=[[0,0.5],[1,0.5]];portConstraint=eastwest;" parent="zkfFHV4jXpPFQw0GAbJ--17" vertex="1">
          <mxGeometry y="26" width="220" height="26" as="geometry" />
        </mxCell>
        <mxCell id="zkfFHV4jXpPFQw0GAbJ--19" value="- data:LocalDate" style="text;align=left;verticalAlign=top;spacingLeft=4;spacingRight=4;overflow=hidden;rotatable=0;points=[[0,0.5],[1,0.5]];portConstraint=eastwest;rounded=0;shadow=0;html=0;" parent="zkfFHV4jXpPFQw0GAbJ--17" vertex="1">
          <mxGeometry y="52" width="220" height="26" as="geometry" />
        </mxCell>
        <mxCell id="zkfFHV4jXpPFQw0GAbJ--23" value="" style="line;html=1;strokeWidth=1;align=left;verticalAlign=middle;spacingTop=-1;spacingLeft=3;spacingRight=3;rotatable=0;labelPosition=right;points=[];portConstraint=eastwest;" parent="zkfFHV4jXpPFQw0GAbJ--17" vertex="1">
          <mxGeometry y="78" width="220" height="8" as="geometry" />
        </mxCell>
        <mxCell id="ifu416TX_ENfzCsFPoP_-5" value="+ StateDate(data: LocalDate,Â stato:state)&#xa;Â Â Â Â Â Â Â Â Â Â Â Â Â Â Â Â &#xa;" style="text;align=left;verticalAlign=top;spacingLeft=4;spacingRight=4;overflow=hidden;rotatable=0;points=[[0,0.5],[1,0.5]];portConstraint=eastwest;" parent="zkfFHV4jXpPFQw0GAbJ--17" vertex="1">
          <mxGeometry y="86" width="220" height="26" as="geometry" />
        </mxCell>
        <mxCell id="zkfFHV4jXpPFQw0GAbJ--24" value="+ getData(): LocalDate" style="text;align=left;verticalAlign=top;spacingLeft=4;spacingRight=4;overflow=hidden;rotatable=0;points=[[0,0.5],[1,0.5]];portConstraint=eastwest;" parent="zkfFHV4jXpPFQw0GAbJ--17" vertex="1">
          <mxGeometry y="112" width="220" height="26" as="geometry" />
        </mxCell>
        <mxCell id="ifu416TX_ENfzCsFPoP_-0" value="+ getStato() : State" style="text;align=left;verticalAlign=top;spacingLeft=4;spacingRight=4;overflow=hidden;rotatable=0;points=[[0,0.5],[1,0.5]];portConstraint=eastwest;" parent="zkfFHV4jXpPFQw0GAbJ--17" vertex="1">
          <mxGeometry y="138" width="220" height="26" as="geometry" />
        </mxCell>
        <mxCell id="zkfFHV4jXpPFQw0GAbJ--25" value="+ setStato(stato: State): void" style="text;align=left;verticalAlign=top;spacingLeft=4;spacingRight=4;overflow=hidden;rotatable=0;points=[[0,0.5],[1,0.5]];portConstraint=eastwest;" parent="zkfFHV4jXpPFQw0GAbJ--17" vertex="1">
          <mxGeometry y="164" width="220" height="26" as="geometry" />
        </mxCell>
        <mxCell id="ifu416TX_ENfzCsFPoP_-4" value="+ toString(): String" style="text;align=left;verticalAlign=top;spacingLeft=4;spacingRight=4;overflow=hidden;rotatable=0;points=[[0,0.5],[1,0.5]];portConstraint=eastwest;" parent="zkfFHV4jXpPFQw0GAbJ--17" vertex="1">
          <mxGeometry y="190" width="220" height="26" as="geometry" />
        </mxCell>
        <mxCell id="ifu416TX_ENfzCsFPoP_-1" value="+ equals(o :Object): boolean" style="text;align=left;verticalAlign=top;spacingLeft=4;spacingRight=4;overflow=hidden;rotatable=0;points=[[0,0.5],[1,0.5]];portConstraint=eastwest;" parent="zkfFHV4jXpPFQw0GAbJ--17" vertex="1">
          <mxGeometry y="216" width="220" height="26" as="geometry" />
        </mxCell>
        <mxCell id="ifu416TX_ENfzCsFPoP_-2" value="+ hashCode(): int" style="text;align=left;verticalAlign=top;spacingLeft=4;spacingRight=4;overflow=hidden;rotatable=0;points=[[0,0.5],[1,0.5]];portConstraint=eastwest;" parent="zkfFHV4jXpPFQw0GAbJ--17" vertex="1">
          <mxGeometry y="242" width="220" height="26" as="geometry" />
        </mxCell>
        <mxCell id="ifu416TX_ENfzCsFPoP_-22" value="1" style="endArrow=open;html=1;endSize=12;startArrow=diamondThin;startSize=14;startFill=0;edgeStyle=orthogonalEdgeStyle;align=left;verticalAlign=bottom;rounded=0;exitX=0.998;exitY=0.236;exitDx=0;exitDy=0;exitPerimeter=0;" parent="WIyWlLk6GJQsqaUBKTNV-1" source="zkfFHV4jXpPFQw0GAbJ--2" target="zkfFHV4jXpPFQw0GAbJ--18" edge="1">
          <mxGeometry x="-0.8596" y="-26" relative="1" as="geometry">
            <mxPoint x="-170" y="-3.5" as="sourcePoint" />
            <mxPoint x="-10" y="-3.5" as="targetPoint" />
            <mxPoint as="offset" />
          </mxGeometry>
        </mxCell>
        <mxCell id="ifu416TX_ENfzCsFPoP_-30" value="1" style="endArrow=open;html=1;endSize=12;startArrow=diamondThin;startSize=14;startFill=0;align=left;verticalAlign=bottom;rounded=0;exitX=1;exitY=0.5;exitDx=0;exitDy=0;" parent="WIyWlLk6GJQsqaUBKTNV-1" source="zkfFHV4jXpPFQw0GAbJ--18" target="ifu416TX_ENfzCsFPoP_-81" edge="1">
          <mxGeometry x="-0.8773" y="-17" relative="1" as="geometry">
            <mxPoint x="-151" as="sourcePoint" />
            <mxPoint x="30" y="46" as="targetPoint" />
            <mxPoint as="offset" />
          </mxGeometry>
        </mxCell>
        <mxCell id="ifu416TX_ENfzCsFPoP_-31" value="&lt;&lt;interface&gt;&gt; &#xa;HasName" style="swimlane;fontStyle=0;align=center;verticalAlign=top;childLayout=stackLayout;horizontal=1;startSize=35;horizontalStack=0;resizeParent=1;resizeLast=0;collapsible=1;marginBottom=0;rounded=0;shadow=0;strokeWidth=1;" parent="WIyWlLk6GJQsqaUBKTNV-1" vertex="1">
          <mxGeometry x="-390" y="1020" width="164" height="75" as="geometry">
            <mxRectangle x="130" y="380" width="160" height="26" as="alternateBounds" />
          </mxGeometry>
        </mxCell>
        <mxCell id="ifu416TX_ENfzCsFPoP_-32" value="+ getNome(): String" style="text;align=left;verticalAlign=top;spacingLeft=4;spacingRight=4;overflow=hidden;rotatable=0;points=[[0,0.5],[1,0.5]];portConstraint=eastwest;" parent="ifu416TX_ENfzCsFPoP_-31" vertex="1">
          <mxGeometry y="35" width="164" height="26" as="geometry" />
        </mxCell>
        <mxCell id="ifu416TX_ENfzCsFPoP_-39" value="" style="endArrow=block;dashed=1;endFill=0;endSize=12;html=1;rounded=0;" parent="WIyWlLk6GJQsqaUBKTNV-1" source="ifu416TX_ENfzCsFPoP_-51" target="ifu416TX_ENfzCsFPoP_-31" edge="1">
          <mxGeometry width="160" relative="1" as="geometry">
            <mxPoint x="-200" y="496" as="sourcePoint" />
            <mxPoint x="-40" y="446" as="targetPoint" />
          </mxGeometry>
        </mxCell>
        <mxCell id="ifu416TX_ENfzCsFPoP_-40" value="Extends" style="endArrow=block;endSize=16;endFill=0;html=1;rounded=0;exitX=0.084;exitY=0.005;exitDx=0;exitDy=0;exitPerimeter=0;entryX=0.254;entryY=1.01;entryDx=0;entryDy=0;entryPerimeter=0;" parent="WIyWlLk6GJQsqaUBKTNV-1" source="zkfFHV4jXpPFQw0GAbJ--6" target="ifu416TX_ENfzCsFPoP_-17" edge="1">
          <mxGeometry width="160" relative="1" as="geometry">
            <mxPoint x="-200" y="496" as="sourcePoint" />
            <mxPoint x="-40" y="496" as="targetPoint" />
          </mxGeometry>
        </mxCell>
        <mxCell id="ifu416TX_ENfzCsFPoP_-52" value="Room" style="swimlane;fontStyle=0;align=center;verticalAlign=top;childLayout=stackLayout;horizontal=1;startSize=26;horizontalStack=0;resizeParent=1;resizeLast=0;collapsible=1;marginBottom=0;rounded=0;shadow=0;strokeWidth=1;" parent="WIyWlLk6GJQsqaUBKTNV-1" vertex="1">
          <mxGeometry x="-80" y="566" width="270" height="398" as="geometry">
            <mxRectangle x="130" y="380" width="160" height="26" as="alternateBounds" />
          </mxGeometry>
        </mxCell>
        <mxCell id="ifu416TX_ENfzCsFPoP_-53" value="- numeroLetti: Integer" style="text;align=left;verticalAlign=top;spacingLeft=4;spacingRight=4;overflow=hidden;rotatable=0;points=[[0,0.5],[1,0.5]];portConstraint=eastwest;" parent="ifu416TX_ENfzCsFPoP_-52" vertex="1">
          <mxGeometry y="26" width="270" height="26" as="geometry" />
        </mxCell>
        <mxCell id="ifu416TX_ENfzCsFPoP_-65" value="- tipo: RoomType" style="text;align=left;verticalAlign=top;spacingLeft=4;spacingRight=4;overflow=hidden;rotatable=0;points=[[0,0.5],[1,0.5]];portConstraint=eastwest;" parent="ifu416TX_ENfzCsFPoP_-52" vertex="1">
          <mxGeometry y="52" width="270" height="26" as="geometry" />
        </mxCell>
        <mxCell id="ifu416TX_ENfzCsFPoP_-54" value="" style="line;html=1;strokeWidth=1;align=left;verticalAlign=middle;spacingTop=-1;spacingLeft=3;spacingRight=3;rotatable=0;labelPosition=right;points=[];portConstraint=eastwest;" parent="ifu416TX_ENfzCsFPoP_-52" vertex="1">
          <mxGeometry y="78" width="270" height="8" as="geometry" />
        </mxCell>
        <mxCell id="ifu416TX_ENfzCsFPoP_-55" value="+ Room()&#xa;" style="text;align=left;verticalAlign=top;spacingLeft=4;spacingRight=4;overflow=hidden;rotatable=0;points=[[0,0.5],[1,0.5]];portConstraint=eastwest;" parent="ifu416TX_ENfzCsFPoP_-52" vertex="1">
          <mxGeometry y="86" width="270" height="26" as="geometry" />
        </mxCell>
        <mxCell id="ifu416TX_ENfzCsFPoP_-56" value="+ Room(s: String)" style="text;align=left;verticalAlign=top;spacingLeft=4;spacingRight=4;overflow=hidden;rotatable=0;points=[[0,0.5],[1,0.5]];portConstraint=eastwest;" parent="ifu416TX_ENfzCsFPoP_-52" vertex="1">
          <mxGeometry y="112" width="270" height="26" as="geometry" />
        </mxCell>
        <mxCell id="ifu416TX_ENfzCsFPoP_-57" value="+ accept(v: Visitor&lt;T&gt;) : T" style="text;align=left;verticalAlign=top;spacingLeft=4;spacingRight=4;overflow=hidden;rotatable=0;points=[[0,0.5],[1,0.5]];portConstraint=eastwest;" parent="ifu416TX_ENfzCsFPoP_-52" vertex="1">
          <mxGeometry y="138" width="270" height="26" as="geometry" />
        </mxCell>
        <mxCell id="ifu416TX_ENfzCsFPoP_-58" value="+ accept(v: Visitor &lt;T&gt;, sd: StateDate): T" style="text;align=left;verticalAlign=top;spacingLeft=4;spacingRight=4;overflow=hidden;rotatable=0;points=[[0,0.5],[1,0.5]];portConstraint=eastwest;" parent="ifu416TX_ENfzCsFPoP_-52" vertex="1">
          <mxGeometry y="164" width="270" height="26" as="geometry" />
        </mxCell>
        <mxCell id="ifu416TX_ENfzCsFPoP_-59" value="+ getNumeroLetti(): Integer" style="text;align=left;verticalAlign=top;spacingLeft=4;spacingRight=4;overflow=hidden;rotatable=0;points=[[0,0.5],[1,0.5]];portConstraint=eastwest;" parent="ifu416TX_ENfzCsFPoP_-52" vertex="1">
          <mxGeometry y="190" width="270" height="26" as="geometry" />
        </mxCell>
        <mxCell id="ifu416TX_ENfzCsFPoP_-60" value="+ setNumeroPosti(numeroLetti: Integer): void" style="text;align=left;verticalAlign=top;spacingLeft=4;spacingRight=4;overflow=hidden;rotatable=0;points=[[0,0.5],[1,0.5]];portConstraint=eastwest;" parent="ifu416TX_ENfzCsFPoP_-52" vertex="1">
          <mxGeometry y="216" width="270" height="26" as="geometry" />
        </mxCell>
        <mxCell id="ifu416TX_ENfzCsFPoP_-61" value="+ getTipo(): RoomType" style="text;align=left;verticalAlign=top;spacingLeft=4;spacingRight=4;overflow=hidden;rotatable=0;points=[[0,0.5],[1,0.5]];portConstraint=eastwest;" parent="ifu416TX_ENfzCsFPoP_-52" vertex="1">
          <mxGeometry y="242" width="270" height="26" as="geometry" />
        </mxCell>
        <mxCell id="ifu416TX_ENfzCsFPoP_-67" value="+ setTipo(tipo: RoomType): void" style="text;align=left;verticalAlign=top;spacingLeft=4;spacingRight=4;overflow=hidden;rotatable=0;points=[[0,0.5],[1,0.5]];portConstraint=eastwest;" parent="ifu416TX_ENfzCsFPoP_-52" vertex="1">
          <mxGeometry y="268" width="270" height="26" as="geometry" />
        </mxCell>
        <mxCell id="ifu416TX_ENfzCsFPoP_-66" value="+ compareName(o: String): int" style="text;align=left;verticalAlign=top;spacingLeft=4;spacingRight=4;overflow=hidden;rotatable=0;points=[[0,0.5],[1,0.5]];portConstraint=eastwest;" parent="ifu416TX_ENfzCsFPoP_-52" vertex="1">
          <mxGeometry y="294" width="270" height="26" as="geometry" />
        </mxCell>
        <mxCell id="ifu416TX_ENfzCsFPoP_-62" value="+ equals(o: Object): boolean" style="text;align=left;verticalAlign=top;spacingLeft=4;spacingRight=4;overflow=hidden;rotatable=0;points=[[0,0.5],[1,0.5]];portConstraint=eastwest;" parent="ifu416TX_ENfzCsFPoP_-52" vertex="1">
          <mxGeometry y="320" width="270" height="26" as="geometry" />
        </mxCell>
        <mxCell id="ifu416TX_ENfzCsFPoP_-63" value="+ hashCode(): int" style="text;align=left;verticalAlign=top;spacingLeft=4;spacingRight=4;overflow=hidden;rotatable=0;points=[[0,0.5],[1,0.5]];portConstraint=eastwest;" parent="ifu416TX_ENfzCsFPoP_-52" vertex="1">
          <mxGeometry y="346" width="270" height="26" as="geometry" />
        </mxCell>
        <mxCell id="ifu416TX_ENfzCsFPoP_-64" value="+ toString(): String" style="text;align=left;verticalAlign=top;spacingLeft=4;spacingRight=4;overflow=hidden;rotatable=0;points=[[0,0.5],[1,0.5]];portConstraint=eastwest;" parent="ifu416TX_ENfzCsFPoP_-52" vertex="1">
          <mxGeometry y="372" width="270" height="26" as="geometry" />
        </mxCell>
        <mxCell id="ifu416TX_ENfzCsFPoP_-69" value="" style="endArrow=block;dashed=1;endFill=0;endSize=12;html=1;rounded=0;" parent="WIyWlLk6GJQsqaUBKTNV-1" source="ifu416TX_ENfzCsFPoP_-64" target="ifu416TX_ENfzCsFPoP_-31" edge="1">
          <mxGeometry width="160" relative="1" as="geometry">
            <mxPoint x="-218" y="574" as="sourcePoint" />
            <mxPoint x="-83" y="416" as="targetPoint" />
          </mxGeometry>
        </mxCell>
        <mxCell id="ifu416TX_ENfzCsFPoP_-81" value="&lt;&lt;enumaration&gt;&gt; &#xa;State" style="swimlane;fontStyle=0;align=center;verticalAlign=top;childLayout=stackLayout;horizontal=1;startSize=35;horizontalStack=0;resizeParent=1;resizeLast=0;collapsible=1;marginBottom=0;rounded=0;shadow=0;strokeWidth=1;" parent="WIyWlLk6GJQsqaUBKTNV-1" vertex="1">
          <mxGeometry x="18" y="12.5" width="164" height="165" as="geometry">
            <mxRectangle x="130" y="380" width="160" height="26" as="alternateBounds" />
          </mxGeometry>
        </mxCell>
        <mxCell id="ifu416TX_ENfzCsFPoP_-82" value="+ DISPONIBILE&#xa;" style="text;align=left;verticalAlign=top;spacingLeft=4;spacingRight=4;overflow=hidden;rotatable=0;points=[[0,0.5],[1,0.5]];portConstraint=eastwest;" parent="ifu416TX_ENfzCsFPoP_-81" vertex="1">
          <mxGeometry y="35" width="164" height="26" as="geometry" />
        </mxCell>
        <mxCell id="ifu416TX_ENfzCsFPoP_-86" value="+ PRENOTATA" style="text;align=left;verticalAlign=top;spacingLeft=4;spacingRight=4;overflow=hidden;rotatable=0;points=[[0,0.5],[1,0.5]];portConstraint=eastwest;" parent="ifu416TX_ENfzCsFPoP_-81" vertex="1">
          <mxGeometry y="61" width="164" height="26" as="geometry" />
        </mxCell>
        <mxCell id="ifu416TX_ENfzCsFPoP_-87" value="+ INUSO" style="text;align=left;verticalAlign=top;spacingLeft=4;spacingRight=4;overflow=hidden;rotatable=0;points=[[0,0.5],[1,0.5]];portConstraint=eastwest;" parent="ifu416TX_ENfzCsFPoP_-81" vertex="1">
          <mxGeometry y="87" width="164" height="26" as="geometry" />
        </mxCell>
        <mxCell id="ifu416TX_ENfzCsFPoP_-88" value="+ PULIZIA" style="text;align=left;verticalAlign=top;spacingLeft=4;spacingRight=4;overflow=hidden;rotatable=0;points=[[0,0.5],[1,0.5]];portConstraint=eastwest;" parent="ifu416TX_ENfzCsFPoP_-81" vertex="1">
          <mxGeometry y="113" width="164" height="26" as="geometry" />
        </mxCell>
        <mxCell id="ifu416TX_ENfzCsFPoP_-89" value="+ CHIUSO" style="text;align=left;verticalAlign=top;spacingLeft=4;spacingRight=4;overflow=hidden;rotatable=0;points=[[0,0.5],[1,0.5]];portConstraint=eastwest;" parent="ifu416TX_ENfzCsFPoP_-81" vertex="1">
          <mxGeometry y="139" width="164" height="26" as="geometry" />
        </mxCell>
        <mxCell id="ifu416TX_ENfzCsFPoP_-90" value="&lt;&lt;enumaration&gt;&gt; &#xa;RoomType" style="swimlane;fontStyle=0;align=center;verticalAlign=top;childLayout=stackLayout;horizontal=1;startSize=35;horizontalStack=0;resizeParent=1;resizeLast=0;collapsible=1;marginBottom=0;rounded=0;shadow=0;strokeWidth=1;" parent="WIyWlLk6GJQsqaUBKTNV-1" vertex="1">
          <mxGeometry x="62" y="356" width="120" height="140" as="geometry">
            <mxRectangle x="130" y="380" width="160" height="26" as="alternateBounds" />
          </mxGeometry>
        </mxCell>
        <mxCell id="ifu416TX_ENfzCsFPoP_-91" value="+ SUITE" style="text;align=left;verticalAlign=top;spacingLeft=4;spacingRight=4;overflow=hidden;rotatable=0;points=[[0,0.5],[1,0.5]];portConstraint=eastwest;" parent="ifu416TX_ENfzCsFPoP_-90" vertex="1">
          <mxGeometry y="35" width="120" height="26" as="geometry" />
        </mxCell>
        <mxCell id="ifu416TX_ENfzCsFPoP_-92" value="+ MINISUITE" style="text;align=left;verticalAlign=top;spacingLeft=4;spacingRight=4;overflow=hidden;rotatable=0;points=[[0,0.5],[1,0.5]];portConstraint=eastwest;" parent="ifu416TX_ENfzCsFPoP_-90" vertex="1">
          <mxGeometry y="61" width="120" height="26" as="geometry" />
        </mxCell>
        <mxCell id="ifu416TX_ENfzCsFPoP_-93" value="+ NORMAL" style="text;align=left;verticalAlign=top;spacingLeft=4;spacingRight=4;overflow=hidden;rotatable=0;points=[[0,0.5],[1,0.5]];portConstraint=eastwest;" parent="ifu416TX_ENfzCsFPoP_-90" vertex="1">
          <mxGeometry y="87" width="120" height="26" as="geometry" />
        </mxCell>
        <mxCell id="ifu416TX_ENfzCsFPoP_-94" value="+ ROYALE" style="text;align=left;verticalAlign=top;spacingLeft=4;spacingRight=4;overflow=hidden;rotatable=0;points=[[0,0.5],[1,0.5]];portConstraint=eastwest;" parent="ifu416TX_ENfzCsFPoP_-90" vertex="1">
          <mxGeometry y="113" width="120" height="26" as="geometry" />
        </mxCell>
        <mxCell id="ifu416TX_ENfzCsFPoP_-97" value="1" style="endArrow=open;html=1;endSize=12;startArrow=diamondThin;startSize=14;startFill=0;edgeStyle=orthogonalEdgeStyle;align=left;verticalAlign=bottom;rounded=0;exitX=0.75;exitY=0;exitDx=0;exitDy=0;" parent="WIyWlLk6GJQsqaUBKTNV-1" source="ifu416TX_ENfzCsFPoP_-52" target="ifu416TX_ENfzCsFPoP_-90" edge="1">
          <mxGeometry x="-0.8773" y="-17" relative="1" as="geometry">
            <mxPoint x="260" y="347.0928955078125" as="sourcePoint" />
            <mxPoint x="182" y="-19" as="targetPoint" />
            <mxPoint as="offset" />
            <Array as="points">
              <mxPoint x="122" y="531" />
              <mxPoint x="122" y="531" />
            </Array>
          </mxGeometry>
        </mxCell>
        <mxCell id="ifu416TX_ENfzCsFPoP_-98" value="Calendar" style="swimlane;fontStyle=0;align=center;verticalAlign=top;childLayout=stackLayout;horizontal=1;startSize=26;horizontalStack=0;resizeParent=1;resizeLast=0;collapsible=1;marginBottom=0;rounded=0;shadow=0;strokeWidth=1;" parent="WIyWlLk6GJQsqaUBKTNV-1" vertex="1">
          <mxGeometry x="-820" y="566" width="370" height="200" as="geometry">
            <mxRectangle x="130" y="380" width="160" height="26" as="alternateBounds" />
          </mxGeometry>
        </mxCell>
        <mxCell id="ifu416TX_ENfzCsFPoP_-101" value="" style="line;html=1;strokeWidth=1;align=left;verticalAlign=middle;spacingTop=-1;spacingLeft=3;spacingRight=3;rotatable=0;labelPosition=right;points=[];portConstraint=eastwest;" parent="ifu416TX_ENfzCsFPoP_-98" vertex="1">
          <mxGeometry y="26" width="370" height="8" as="geometry" />
        </mxCell>
        <mxCell id="ifu416TX_ENfzCsFPoP_-102" value="+ Calendar()" style="text;align=left;verticalAlign=top;spacingLeft=4;spacingRight=4;overflow=hidden;rotatable=0;points=[[0,0.5],[1,0.5]];portConstraint=eastwest;" parent="ifu416TX_ENfzCsFPoP_-98" vertex="1">
          <mxGeometry y="34" width="370" height="26" as="geometry" />
        </mxCell>
        <mxCell id="ifu416TX_ENfzCsFPoP_-103" value="+getLastDate(): LocalDate" style="text;align=left;verticalAlign=top;spacingLeft=4;spacingRight=4;overflow=hidden;rotatable=0;points=[[0,0.5],[1,0.5]];portConstraint=eastwest;" parent="ifu416TX_ENfzCsFPoP_-98" vertex="1">
          <mxGeometry y="60" width="370" height="26" as="geometry" />
        </mxCell>
        <mxCell id="ifu416TX_ENfzCsFPoP_-107" value="+ setStatData(data: LocalData, stato:State): void" style="text;align=left;verticalAlign=top;spacingLeft=4;spacingRight=4;overflow=hidden;rotatable=0;points=[[0,0.5],[1,0.5]];portConstraint=eastwest;" parent="ifu416TX_ENfzCsFPoP_-98" vertex="1">
          <mxGeometry y="86" width="370" height="26" as="geometry" />
        </mxCell>
        <mxCell id="ifu416TX_ENfzCsFPoP_-106" value="+ setCalendario( startDate:LocalDate, endDate:LocalDate): void" style="text;align=left;verticalAlign=top;spacingLeft=4;spacingRight=4;overflow=hidden;rotatable=0;points=[[0,0.5],[1,0.5]];portConstraint=eastwest;" parent="ifu416TX_ENfzCsFPoP_-98" vertex="1">
          <mxGeometry y="112" width="370" height="26" as="geometry" />
        </mxCell>
        <mxCell id="ifu416TX_ENfzCsFPoP_-104" value="+ accept(v: Visitor&lt;T&gt;) : T" style="text;align=left;verticalAlign=top;spacingLeft=4;spacingRight=4;overflow=hidden;rotatable=0;points=[[0,0.5],[1,0.5]];portConstraint=eastwest;" parent="ifu416TX_ENfzCsFPoP_-98" vertex="1">
          <mxGeometry y="138" width="370" height="26" as="geometry" />
        </mxCell>
        <mxCell id="ifu416TX_ENfzCsFPoP_-105" value="+ accept(v: Visitor &lt;T&gt;, sd: StateDate): T" style="text;align=left;verticalAlign=top;spacingLeft=4;spacingRight=4;overflow=hidden;rotatable=0;points=[[0,0.5],[1,0.5]];portConstraint=eastwest;" parent="ifu416TX_ENfzCsFPoP_-98" vertex="1">
          <mxGeometry y="164" width="370" height="26" as="geometry" />
        </mxCell>
        <mxCell id="ifu416TX_ENfzCsFPoP_-114" value="Extends" style="endArrow=block;endSize=16;endFill=0;html=1;rounded=0;entryX=0.074;entryY=1.01;entryDx=0;entryDy=0;entryPerimeter=0;exitX=0.452;exitY=0.003;exitDx=0;exitDy=0;exitPerimeter=0;" parent="WIyWlLk6GJQsqaUBKTNV-1" source="ifu416TX_ENfzCsFPoP_-98" target="ifu416TX_ENfzCsFPoP_-17" edge="1">
          <mxGeometry x="0.0182" y="-1" width="160" relative="1" as="geometry">
            <mxPoint x="-330" y="581" as="sourcePoint" />
            <mxPoint x="-366" y="423" as="targetPoint" />
            <mxPoint y="-1" as="offset" />
          </mxGeometry>
        </mxCell>
        <mxCell id="ifu416TX_ENfzCsFPoP_-115" value="" style="endArrow=block;dashed=1;endFill=0;endSize=12;html=1;rounded=0;exitX=0.539;exitY=1.131;exitDx=0;exitDy=0;exitPerimeter=0;" parent="WIyWlLk6GJQsqaUBKTNV-1" source="ifu416TX_ENfzCsFPoP_-105" target="ifu416TX_ENfzCsFPoP_-31" edge="1">
          <mxGeometry width="160" relative="1" as="geometry">
            <mxPoint x="-218" y="574" as="sourcePoint" />
            <mxPoint x="-120" y="416" as="targetPoint" />
          </mxGeometry>
        </mxCell>
        <mxCell id="ifu416TX_ENfzCsFPoP_-116" value="Extends" style="endArrow=block;endSize=16;endFill=0;html=1;rounded=0;exitX=0.25;exitY=0;exitDx=0;exitDy=0;entryX=0.866;entryY=1.097;entryDx=0;entryDy=0;entryPerimeter=0;" parent="WIyWlLk6GJQsqaUBKTNV-1" source="ifu416TX_ENfzCsFPoP_-52" target="ifu416TX_ENfzCsFPoP_-17" edge="1">
          <mxGeometry width="160" relative="1" as="geometry">
            <mxPoint x="-367" y="578" as="sourcePoint" />
            <mxPoint x="-586" y="439" as="targetPoint" />
          </mxGeometry>
        </mxCell>
      </root>
    </mxGraphModel>
  </diagram>
</mxfile>
